<svg width="648mm" height="514mm" viewBox="0 0 648 514" version="1.1" xmlns="http://www.w3.org/2000/svg">
  <defs
     id="defs2" />
  
    <g
       id="g3847"
       transform="matrix(0.90846295,0,0,0.90846295,164.22814,31.913731)">
      <g
         id="g12268"
         transform="translate(-180.77046,-35.12937)">
        <g
           id="g26117"
           transform="matrix(0.97409119,0,0,0.97409119,-0.00536581,1.1210309e-7)">
          <g
             id="g29434">
            <path
               d="m 721.49958,471.94602 c -3.16093,0.3401 -6.60921,0.85055 -10.27718,1.59744 -15.55246,3.16687 -15.87526,13.72736 -15.73896,16.14847 l -0.10566,-0.0659 c -1.56382,2.50859 -2.54325,5.0473 -3.13519,7.44337 l -0.71221,-32.36652 c 0.46052,-0.9602 0.87954,-2.04896 1.22889,-3.16494 1.16419,3.58504 3.07256,6.97195 4.7176,6.74748 2.13909,-0.2919 3.07167,-6.58596 2.67265,-11.05881 2.72016,3.50314 7.2981,7.24972 9.02511,6.09446 1.38001,-0.92313 0.56173,-4.72359 -0.94492,-8.17871 3.13929,1.89132 6.61613,3.13439 7.69503,1.93342 1.47227,-1.63885 -2.05557,-7.23082 -5.30905,-10.35235 4.35496,0.40613 9.89372,-0.28771 10.25684,-2.26977 0.2992,-1.6331 -2.99722,-3.69384 -6.5255,-5.02014 3.5439,-0.93441 6.85789,-2.56256 6.74798,-4.17324 -0.13057,-1.91338 -5.05068,-3.19543 -9.29526,-3.39051 3.20154,-2.50471 6.14321,-5.96711 5.24362,-7.53303 -0.82704,-1.43962 -4.67439,-0.88198 -8.22406,0.38596 2.10064,-3.00326 3.5775,-6.38742 2.45277,-7.54556 -1.40106,-1.44266 -6.37359,1.04738 -9.76711,3.79978 0.66062,-4.28797 0.32665,-9.70052 -1.59659,-10.19022 -1.60895,-0.40967 -3.88929,2.73886 -5.4527,6.16866 -0.69097,-3.59931 -2.08979,-7.01645 -3.7042,-7.01645 -2.29982,0 -4.16418,6.93399 -4.16418,11.45149 0,0.25536 0.007,0.49574 0.0184,0.72541 -0.23083,-0.26761 -0.49538,-0.54719 -0.79707,-0.84018 -3.24076,-3.14728 -9.51391,-6.64064 -11.11616,-4.99082 -1.12474,1.15814 0.35212,4.5423 2.45277,7.54556 -3.54967,-1.26794 -7.39702,-1.82559 -8.22406,-0.38596 -1.11127,1.93439 3.63883,6.76323 7.4999,9.10499 -0.2321,-0.028 -0.47595,-0.0515 -0.73547,-0.0692 -4.50701,-0.30752 -11.55183,1.08049 -11.7084,3.37497 -0.10991,1.61067 3.20409,3.23883 6.74798,4.17324 -3.52829,1.3263 -6.8247,3.38704 -6.5255,5.02014 0.36312,1.98206 5.90188,2.6759 10.25684,2.26977 -3.25348,3.12154 -6.78132,8.7135 -5.30905,10.35235 1.0789,1.20097 4.55573,-0.0421 7.69503,-1.93342 -1.50665,3.45512 -2.32492,7.25558 -0.94492,8.17871 1.82373,1.21996 6.82541,-3.02601 9.4625,-6.67949 -0.2687,4.46965 0.80077,10.61004 2.9228,10.85236 0.88742,0.10134 1.82777,-0.84507 2.67643,-2.3023 l -2.40356,34.79012 c -0.56184,4.05159 3.03199,6.69542 3.35318,8.36434 l 0.51842,23.5593 c -0.58508,-1.67794 -1.37316,-3.3952 -2.43548,-5.09933 l -0.10566,0.0659 c 0.13628,-2.42136 -0.18675,-12.98155 -15.73896,-16.14836 -3.66797,-0.74689 -7.11625,-1.25734 -10.27718,-1.59744 -3.73116,-0.40145 -5.1866,4.70611 -1.81595,6.35581 4.88144,2.38917 9.4733,5.39935 11.86668,8.96403 6.11901,9.11359 14.5737,3.84542 15.77578,3.0275 1.34266,2.23509 2.22306,4.48687 2.77913,6.62945 l 0.27531,12.51144 c -0.0674,0.2959 -0.11414,0.46159 -0.11777,0.47403 l 0.12902,0.0378 0.66628,30.27884 6.18057,-0.0496 -2.21068,-30.94947 c 0.37149,-1.66957 1.51435,-7.35722 0,-13.26406 L 695.1878,509.4194 v 0 c -0.005,-0.0188 0.12548,0.63842 0,0 l -2.8837,-9.55504 c 0.41933,-2.95604 1.3925,-6.28098 3.36894,-9.57097 1.20206,0.81791 9.65677,6.08611 15.77579,-3.0275 2.39338,-3.56469 6.98524,-6.57486 11.86668,-8.96403 3.37065,-1.64971 1.91521,-6.75726 -1.81595,-6.35581 z m -28.23342,71.6385 -0.11651,-5.2952 c 0.23499,2.00214 0.2231,3.80933 0.11651,5.2952 z"
               fill="#f2f2f2"
               id="path25893" />
            <path
               d="m 91.49958,472.39172 c -3.16093,0.3401 -6.60921,0.85055 -10.27718,1.59744 -15.55246,3.16687 -15.87526,13.72736 -15.73896,16.14847 l -0.10566,-0.0659 c -1.56382,2.50859 -2.54325,5.0473 -3.13519,7.44337 l -0.71221,-32.36652 c 0.46052,-0.9602 0.87954,-2.04896 1.22889,-3.16494 1.16419,3.58504 3.07256,6.97195 4.7176,6.74748 2.13909,-0.2919 3.07167,-6.58596 2.67265,-11.05881 2.72016,3.50314 7.2981,7.24972 9.02511,6.09446 1.38001,-0.92313 0.56173,-4.72359 -0.94492,-8.17871 3.13929,1.89132 6.61613,3.13439 7.69503,1.93342 1.47227,-1.63885 -2.05557,-7.23082 -5.30905,-10.35235 4.35496,0.40613 9.89372,-0.28771 10.25684,-2.26977 0.2992,-1.6331 -2.99722,-3.69384 -6.5255,-5.02014 3.5439,-0.93441 6.85789,-2.56256 6.74798,-4.17324 -0.13057,-1.91338 -5.05068,-3.19543 -9.29526,-3.39051 3.20154,-2.50471 6.14321,-5.96711 5.24362,-7.53303 -0.82704,-1.43962 -4.67439,-0.88198 -8.22406,0.38596 2.10064,-3.00326 3.5775,-6.38742 2.45277,-7.54556 -1.40106,-1.44266 -6.37359,1.04738 -9.76711,3.79978 0.66062,-4.28797 0.32665,-9.70052 -1.59659,-10.19022 -1.60895,-0.40967 -3.88929,2.73886 -5.4527,6.16866 -0.69097,-3.59931 -2.08979,-7.01645 -3.7042,-7.01645 -2.29982,0 -4.16418,6.93399 -4.16418,11.45149 0,0.25536 0.0068,0.49574 0.01843,0.72541 -0.23083,-0.26761 -0.49538,-0.54719 -0.79707,-0.84018 -3.24076,-3.14728 -9.51391,-6.64064 -11.11616,-4.99082 -1.12474,1.15814 0.35212,4.5423 2.45277,7.54556 -3.54967,-1.26794 -7.39702,-1.82559 -8.22406,-0.38596 -1.11127,1.93439 3.63883,6.76323 7.4999,9.10499 -0.2321,-0.028 -0.47595,-0.0515 -0.73547,-0.0692 -4.50701,-0.30752 -11.55183,1.08049 -11.7084,3.37497 -0.10991,1.61067 3.20409,3.23883 6.74798,4.17324 -3.52829,1.3263 -6.8247,3.38704 -6.5255,5.02014 0.36312,1.98206 5.90188,2.6759 10.25684,2.26977 -3.25348,3.12154 -6.78132,8.7135 -5.30905,10.35235 1.0789,1.20097 4.55573,-0.0421 7.69503,-1.93342 -1.50665,3.45512 -2.32492,7.25558 -0.94492,8.17871 1.82373,1.21996 6.82541,-3.02601 9.4625,-6.67949 -0.2687,4.46965 0.80077,10.61004 2.9228,10.85236 0.88742,0.10134 1.82777,-0.84507 2.67643,-2.3023 l -2.40356,34.79012 c -0.56184,4.05159 3.03199,6.69542 3.35318,8.36434 l 0.51842,23.5593 c -0.58508,-1.67794 -1.37316,-3.3952 -2.43548,-5.09933 l -0.10566,0.0659 c 0.13628,-2.42136 -0.18675,-12.98155 -15.73896,-16.14836 -3.66797,-0.74689 -7.11625,-1.25734 -10.27718,-1.59744 -3.73116,-0.40145 -5.1866,4.70611 -1.81595,6.35581 4.88144,2.38917 9.4733,5.39935 11.86668,8.96403 6.11901,9.11359 14.5737,3.84542 15.77578,3.0275 1.34266,2.23509 2.22306,4.48687 2.77913,6.62945 l 0.27531,12.51144 c -0.06744,0.2959 -0.11414,0.46159 -0.11777,0.47403 l 0.12902,0.0378 0.66628,30.27884 6.18057,-0.0497 -2.21068,-30.94947 c 0.37149,-1.66957 1.51435,-7.35722 0,-13.26406 L 65.1878,509.8651 v 0 c -0.0055,-0.0188 0.12548,0.63842 0,0 l -2.8837,-9.55504 c 0.41933,-2.95604 1.3925,-6.28098 3.36894,-9.57097 1.20206,0.81791 9.65677,6.08611 15.77579,-3.0275 2.39338,-3.56469 6.98524,-6.57486 11.86668,-8.96403 3.37065,-1.64971 1.91521,-6.75726 -1.81595,-6.35581 z m -28.23342,71.6385 -0.11651,-5.2952 c 0.23499,2.00214 0.2231,3.80933 0.11651,5.2952 z"
               fill="#f2f2f2"
               id="path25895" />
            <path
               d="M 69.67853,492.01638 V 87.65199 C 69.67853,39.32088 108.99941,0 157.33052,0 h 417.00901 c 48.33111,0 87.65199,39.32088 87.65199,87.65199 v 404.36439 c 0,48.33111 -39.32088,87.651 -87.65199,87.651 H 157.33052 c -48.33111,0 -87.65199,-39.31989 -87.65199,-87.651 z M 157.33052,4.05515 c -46.09563,0 -83.59684,37.50121 -83.59684,83.59684 v 404.36439 c 0,46.09563 37.50121,83.59585 83.59684,83.59585 h 417.00901 c 46.09563,0 83.59684,-37.50022 83.59684,-83.59585 V 87.65199 c 0,-46.09563 -37.50121,-83.59684 -83.59684,-83.59684 H 157.33052 Z"
               fill="#3f3d56"
               id="path25897"
               style="fill:#ffffff;fill-opacity:1" />
            <path
               d="m 0,577.6933 c 0,0.66003 0.53003,1.19 1.19006,1.19 h 729.28998 c 0.65997,0 1.19,-0.52997 1.19,-1.19 0,-0.65997 -0.53003,-1.19 -1.19,-1.19 H 1.19006 C 0.53003,576.5033 0,577.03333 0,577.6933 Z"
               fill="#3f3d56"
               id="path25899" />
            <g
               id="g26035">
              <g
                 id="g25935">
                <g
                   id="g25905">
                  <path
                     d="m 214.38153,364.52411 c 4.29512,-3.62852 3.15473,-12.04138 -2.54731,-18.791 -2.49596,-2.95455 -5.45235,-5.10025 -8.34791,-6.27504 l -3.32808,-3.84083 -42.97614,-53.84806 c 0,0 -23.79959,-53.56756 -30.82517,-59.35469 -7.02546,-5.78711 -15.29123,-2.77409 -15.29123,-2.77409 l -6.4493,7.97905 40.18869,74.79328 41.13045,41.3927 5.5524,5.78891 c 0.67459,3.0511 2.2962,6.32438 4.79235,9.27872 5.70192,6.74958 13.80613,9.27957 18.10126,5.65105 z"
                     fill="#a0616a"
                     id="path25901" />
                  <polygon
                     points="131.70771,280.66234 107.17909,238.57362 133.25768,232.37452 144.02754,248.16939 159.48877,271.052 "
                     fill="#e6e6e6"
                     id="polygon25903" />
                </g>
                <path
                   d="m 144.19227,178.61885 -7.80013,29.73798 -29.73798,-5.85009 c 0,0 11.70019,-21.45034 8.77514,-31.2005 l 28.76296,7.31262 z"
                   fill="#a0616a"
                   id="path25907" />
                <g
                   id="g25913">
                  <polygon
                     points="112.80002,565.71513 130.70799,565.71338 139.22691,496.63899 112.79642,496.64084 "
                     fill="#a0616a"
                     id="polygon25909" />
                  <path
                     d="m 174.15498,565.30889 v 0 c 0.55759,0.93909 0.85181,3.97004 0.85181,5.06213 v 0 c 0,3.35677 -2.72116,6.07804 -6.07804,6.07804 h -55.45891 c -2.28997,0 -4.14646,-1.85639 -4.14646,-4.14646 v -2.30893 c 0,0 -2.7435,-6.93954 2.90488,-15.4929 0,0 7.02018,6.69741 17.51013,-3.79254 l 3.09339,-5.60392 22.39191,16.37631 12.4115,1.52774 c 2.71538,0.33421 5.12282,-0.0519 6.51958,2.30054 h 2.2e-4 z"
                     fill="#2f2e41"
                     id="path25911" />
                </g>
                <path
                   d="m 162.52422,365.81242 -24.67649,167.92053 h -30.95997 l 4.11678,-95.85314 2.1667,-50.40023 -6.28348,-23.99036 c 0,0 -2.86489,-5.33256 -5.27837,-11.79659 -2.72041,-7.29461 -4.86907,-16.0397 -1.67919,-20.18656 1.17365,-1.52876 4.22511,-2.66027 8.37194,-3.50286 2.53387,-0.5176 5.48302,-0.92087 8.66688,-1.23382 18.30874,-1.81162 44.35149,-0.68011 44.35149,-0.68011 l 0.66204,21.84772 0.36717,12.19983 0.17453,5.67559 z"
                   fill="#2f2e41"
                   id="path25915" />
                <g
                   id="g25921">
                  <polygon
                     points="81.2545,557.5028 98.97227,560.10591 117.44795,493.00529 91.29828,489.16262 "
                     fill="#a0616a"
                     id="polygon25917" />
                  <path
                     d="m 142.01602,566.02539 v 0 c 0.41506,1.01021 0.26528,4.05172 0.10642,5.13219 v 0 c -0.48827,3.32107 -3.57631,5.61758 -6.89749,5.1293 l -54.86908,-8.06689 c -2.26562,-0.33309 -3.83234,-2.43977 -3.49923,-4.7055 l 0.33585,-2.28437 c 0,0 -1.70491,-7.2648 5.12754,-14.9056 0,0 5.97133,7.64732 17.87555,-1.20523 l 3.87562,-5.09436 19.77171,19.4592 12.05728,3.31683 c 2.63789,0.72562 5.07588,0.69383 6.11561,3.22439 l 2.2e-4,3e-5 z"
                     fill="#2f2e41"
                     id="path25919" />
                </g>
                <path
                   d="m 162.9126,337.80796 -3.38461,29.14827 -18.45796,61.42324 -30.38488,101.12375 -30.6273,-4.50094 27.48765,-143.78293 -2.72171,-24.65488 c 0,0 -0.88637,-2.45072 -1.9024,-6.03858 -2.01675,-7.09804 -4.54621,-18.6572 -1.76339,-24.55346 0.37576,-0.80151 0.84747,-1.49694 1.43102,-2.06004 1.09454,-1.06148 3.31911,-1.70605 6.29953,-2.04796 12.45762,-1.40795 38.1133,2.61904 49.52941,4.59588 l 4.49463,11.34764 z"
                   fill="#2f2e41"
                   id="path25923" />
                <path
                   d="m 139.31719,199.58168 33.63804,42.41318 -6.03819,44.21925 -5.17449,44.99469 -60.93848,-9.26265 c 0,0 13.16271,-31.68801 14.62524,-33.15053 1.46252,-1.46252 5.13611,2.14961 2.56805,-2.5815 -2.56805,-4.73111 -5.4931,-4.73111 -3.05556,-7.16865 2.43754,-2.43754 -19.01281,-34.12555 -19.01281,-51.18832 0,-17.06277 10.23766,-30.71299 10.23766,-30.71299 l 33.15053,2.43754 z"
                   fill="#e6e6e6"
                   id="path25925" />
                <circle
                   cx="131.46892"
                   cy="161.57458"
                   r="22.660259"
                   fill="#a0616a"
                   id="circle25927" />
                <path
                   d="m 130.40994,204.90025 c 0,0 3.39081,-26.83001 3.99099,-34.63235 0.60018,-7.80234 11.6137,-19.98406 11.6137,-19.98406 l 7.80234,6.30189 c 0,0 6.60198,0 2.10063,-9.60289 -4.50135,-9.60289 -12.90388,-11.10334 -12.90388,-11.10334 0,0 -0.90027,-12.60379 -16.50496,-11.10334 -15.60469,1.50045 -22.50676,14.10424 -22.50676,14.10424 0,0 -0.90027,-15.90478 -10.80325,-4.20126 -9.90298,11.70352 -15.60469,16.50496 -5.10153,20.40613 10.50316,3.90117 18.3055,0.90027 18.3055,0.90027 0,0 -10.20307,2.10063 -8.40253,9.3028 1.80054,7.20216 -23.70712,39.91199 -12.00361,43.51308 11.70352,3.60108 37.81136,12.3037 40.81226,6.60198 3.0009,-5.70171 3.60108,-10.50316 3.60108,-10.50316 z"
                   fill="#2f2e41"
                   id="path25929" />
                <path
                   d="m 111.36458,404.24074 c 5.62238,0.0556 10.25102,-7.06143 10.33845,-15.89675 0.0383,-3.86753 -0.80025,-7.42295 -2.22658,-10.20324 l -0.0134,-5.08211 2.60216,-68.84614 c 0,0 16.94478,-56.11397 15.4013,-65.08434 -1.54341,-8.97026 -9.77161,-12.08441 -9.77161,-12.08441 l -10.09443,1.83341 -18.38798,82.89178 4.13144,58.20653 0.42643,8.00992 c -1.48097,2.75155 -2.38965,6.28967 -2.42767,10.15715 -0.0875,8.83522 4.39949,16.04258 10.02187,16.0982 z"
                   fill="#a0616a"
                   id="path25931" />
                <path
                   d="m 123.53456,218.05597 c 0,0 -26.98206,47.94335 -23.09326,61.67712 l 29.90834,1.21814 c 0,0 1.63332,1.26768 1.50778,-4.53099 -0.12554,-5.79867 6.65437,-12.27698 6.65437,-12.27698 0,0 -0.12724,2.82599 -0.99032,-1.97813 -0.86308,-4.80412 15.6253,-18.84136 15.6253,-18.84136 l -29.61221,-25.26781 z"
                   fill="#e6e6e6"
                   id="path25933" />
              </g>
              <g
                 id="g25965">
                <path
                   d="m 193.14381,352.80671 3.13212,-74.67008 c 0,0 3.51813,-44.33014 6.33285,-59.81056 2.81459,-15.48035 21.81327,-11.25847 21.81327,-11.25847 l -2.11104,44.33021 -9.10799,45.36607 -7.08903,61.77602 c 0.36516,1.78697 0.57202,3.72941 0.57202,5.76875 0,8.6545 -3.61417,15.67039 -8.07265,15.67039 -4.45848,0 -8.07265,-7.01588 -8.07265,-15.67039 0,-4.55254 1.00618,-8.63894 2.60311,-11.50194 z"
                   fill="#ffb6b6"
                   id="path25937" />
                <path
                   d="m 345.60722,333.45905 c -3.3305,-3.96699 -7.31931,-6.66272 -10.90114,-7.70034 l -42.12715,-47.62204 c 0,0 -3.51827,-44.33019 -6.33288,-59.81057 -2.81462,-15.48038 -21.81327,-11.25846 -21.81327,-11.25846 l 2.11096,44.33019 11.96211,47.84846 49.29511,41.85108 c 0.86084,1.56828 1.91615,3.13586 3.18019,4.64144 5.99721,7.14305 14.13303,10.18477 18.172,6.7938 4.03879,-3.39097 2.45128,-11.93051 -3.54593,-19.07355 z"
                   fill="#ffb6b6"
                   id="path25939" />
                <polygon
                   points="252.91997,201.08658 248.03317,182.3 228.99574,181.38427 223.30002,207.28095 "
                   fill="#ffb6b6"
                   id="polygon25941" />
                <polygon
                   points="252.91997,201.08658 248.03317,182.3 228.99574,181.38427 223.30002,207.28095 "
                   opacity="0.1"
                   id="polygon25943" />
                <g
                   id="g25949">
                  <polygon
                     points="301.53329,508.86182 319.36388,507.84321 317.02489,562.56509 304.94255,563.25611 "
                     fill="#ffb6b6"
                     id="polygon25945" />
                  <path
                     d="m 318.57004,545.26311 -6.19133,2.82426 0.008,3.75306 c 0,0 -1.49369,-4.34364 -9.51148,-5.29135 l -0.95708,3.63883 c 0,0 -3.1096,3.56921 -2.57625,10.02522 l 2.04093,17.2889 6.04663,-0.13922 0.97663,-12.03054 c 0,0 1.66571,-2.72995 9.33813,10.24214 0,0 8.45177,2.13021 21.53995,-2.25824 1.79889,-0.60316 3.04847,-2.2826 3.02493,-4.17977 -0.013,-1.04698 -0.42223,-2.01456 -1.73507,-2.36165 -3.34179,-0.88349 -6.60508,0.23679 -8.76316,-2.43051 -2.15809,-2.6673 -13.24086,-19.08113 -13.24086,-19.08113 z"
                     fill="#2f2e41"
                     id="path25947" />
                </g>
                <g
                   id="g25955">
                  <polygon
                     points="205.83638,508.86182 223.66696,507.84321 221.32797,562.56509 209.24563,563.25611 "
                     fill="#ffb6b6"
                     id="polygon25951" />
                  <path
                     d="m 222.87312,545.26311 -6.19133,2.82426 0.008,3.75306 c 0,0 -1.49369,-4.34364 -9.51148,-5.29135 l -0.95708,3.63883 c 0,0 -3.1096,3.56921 -2.57625,10.02522 l 2.04093,17.2889 6.04663,-0.13922 0.97663,-12.03054 c 0,0 1.66571,-2.72995 9.33813,10.24214 0,0 8.45177,2.13021 21.53995,-2.25824 1.79889,-0.60316 3.04847,-2.2826 3.02493,-4.17977 -0.013,-1.04698 -0.42223,-2.01456 -1.73507,-2.36165 -3.34179,-0.88349 -6.60508,0.23679 -8.76316,-2.43051 -2.15809,-2.6673 -13.24086,-19.08113 -13.24086,-19.08113 z"
                     fill="#2f2e41"
                     id="path25953" />
                </g>
                <circle
                   cx="238.28291"
                   cy="172.25386"
                   r="21.10961"
                   fill="#ffb6b6"
                   id="circle25957" />
                <path
                   d="m 226.31203,175.76299 c 0,0 9.28116,-15.18615 18.57168,-13.50998 9.29051,1.67617 14.13371,3.1895 14.13371,3.1895 0,0 3.78331,-12.10799 -8.91849,-17.91702 0,0 17.97526,-15.04994 -1.18237,-24.70849 -19.15763,-9.65855 -31.07892,-0.29785 -31.07892,-0.29785 0,0 -15.85621,13.44723 1.72388,25.89215 0,0 -15.21577,17.33237 0.15245,33.88871 0,0 -2.71303,-12.60673 0.97762,-10.02228 3.69065,2.58444 5.62044,3.48527 5.62044,3.48527 z"
                   fill="#2f2e41"
                   id="path25959" />
                <path
                   d="m 224.07016,202.49389 28.84981,-3.51827 22.1651,17.94317 c 0,0 11.02359,30.71471 2.81462,49.25577 -0.1967,0.44428 -0.35183,31.31259 -0.35183,31.31259 h -61.29545 c 0,0 0.0594,-21.01066 -2.28273,-28.62029 -0.33459,-1.08709 -0.71819,-1.90069 -1.15797,-2.34048 -3.51827,-3.51827 -11.96211,-26.03519 -7.74019,-35.88634 4.22192,-9.85115 18.99865,-28.14615 18.99865,-28.14615 z"
                   fill="#ffffff"
                   id="path25961" />
                <polygon
                   points="203.31237,321.41138 216.30226,296.07984 277.89968,296.07984 316.60064,419.21926 325.04448,516.32349 301.47208,516.32349 281.41794,426.2558 253.80092,374.11893 226.53295,523.36002 202.73892,523.36002 "
                   fill="#2f2e41"
                   id="polygon25963" />
              </g>
              <polygon
                 points="453.66501,225.54225 450.01252,202.71416 474.66685,192.6698 478.31935,227.3685 "
                 fill="#a0616a"
                 id="polygon25967" />
              <polygon
                 points="453.66501,225.54225 450.01252,202.71416 474.66685,192.6698 478.31935,227.3685 "
                 opacity="0.1"
                 id="polygon25969" />
              <g
                 id="g25974">
                <path
                   id="uuid-3c77ad98-4e4f-4221-b0fd-df95ba10ebf6-494"
                   d="m 345.55635,329.9145 c -4.1231,4.93961 -4.91651,11.07098 -1.77248,13.69443 3.14403,2.62345 9.03401,0.74544 13.15792,-4.19648 1.67441,-1.9515 2.85713,-4.27561 3.44919,-6.7779 l 17.20543,-21.14995 -8.38104,-6.78252 -17.60561,20.60491 c -2.35682,1.03035 -4.43255,2.61027 -6.05341,4.6075 z"
                   fill="#a0616a" />
                <polygon
                   points="426.73781,249.0968 397.42925,296.01198 367.50964,326.08206 357.8121,318.0368 387.98656,280.49224 410.85862,232.11727 420.74954,225.37725 "
                   fill="#e6e6e6"
                   id="polygon25972" />
              </g>
              <polygon
                 points="442.70753,527.78616 437.22879,550.61425 453.66501,555.17987 457.31751,530.52553 "
                 fill="#a0616a"
                 id="polygon25976" />
              <polygon
                 points="429.01067,495.82684 402.53009,465.69376 416.22694,453.82315 433.57629,468.43313 444.53378,485.78248 "
                 fill="#a0616a"
                 id="polygon25978" />
              <path
                 d="m 421.70569,303.15776 -14.60998,49.30867 c 0,0 -64.83178,56.61366 -58.43991,68.48427 6.39187,11.87061 49.30867,44.74306 49.30867,44.74306 0,0 -3.18515,10.51171 6.16898,6.16898 9.35412,-4.34273 19.39848,-16.21334 19.39848,-16.21334 0,0 0,-9.13124 -4.56562,-7.30499 -4.56562,1.82625 -25.56746,-22.82809 -25.56746,-22.82809 l 49.02306,-41.34256 -3.36688,139.79095 c 0,0 -10.95748,9.58061 0,10.35353 10.95748,0.77292 17.34935,2.59917 17.34935,2.59917 0,0 12.78373,-4.56562 8.21811,-9.13124 l 17.34935,-74.87614 16.79961,-78.45163 c 1.962,-9.16222 1.28404,-18.69308 -1.95511,-27.48533 l -12.10513,-32.85782 -63.00553,-10.95748 z"
                 fill="#2f2e41"
                 id="path25980" />
              <path
                 d="m 450.92564,547.87488 c 0,0 -0.91312,-3.65249 -4.56562,-3.65249 h -11.15521 c 0,0 -3.45477,15.5231 -2.54165,15.5231 0.91312,0 -14.60998,20.08872 1.82625,21.00184 16.43622,0.91312 21.00184,-0.91312 21.00184,-0.91312 l 1.82625,-7.20792 c 0,0 2.73937,-4.66268 1.82625,-8.31518 -0.91312,-3.6525 -8.21811,-16.43622 -8.21811,-16.43622 z"
                 fill="#2f2e41"
                 id="path25982" />
              <path
                 d="m 428.09755,488.52185 c 0,0 -10.48774,-0.16537 -7.98324,2.65669 2.5045,2.82206 7.07012,7.38767 7.07012,7.38767 0,0 10.86088,21.91497 15.93136,17.80591 5.07048,-4.10906 13.28859,-49.76524 10.54922,-55.24398 -2.73937,-5.47874 -6.39187,-5.47874 -6.39187,-5.47874 l -16.84628,10.13158 c 0,0 10.45441,25.48024 -2.32932,22.74087 z"
                 fill="#2f2e41"
                 id="path25984" />
              <path
                 d="m 479.68903,222.34632 -29.21996,-7.30499 -31.0462,10.04436 c 0,0 -13.69685,38.35119 -9.13124,52.04805 4.56562,13.69685 8.38906,34.90326 8.38906,34.90326 0,0 -3.36688,-6.13986 23.1137,2.07825 26.48058,8.21811 45.65618,7.30499 45.65618,7.30499 l 0.91312,-32.87245 11.47094,-29.19876 c 4.90299,-12.48035 -0.38168,-26.65016 -12.2597,-32.87198 l -7.88591,-4.13072 z"
                 fill="#e6e6e6"
                 id="path25986" />
              <g
                 id="g25992">
                <circle
                   cx="463.16928"
                   cy="187.06422"
                   r="24.667459"
                   fill="#a0616a"
                   id="circle25988" />
                <path
                   d="m 483.09299,203.19295 c 0,0 -3.79499,3.79499 -7.58999,5.69249 -1.09027,0.54513 -1.00594,-0.24093 -0.33194,-1.63831 3.42176,-7.0942 2.10635,-15.56225 -3.46304,-21.13164 h -10e-6 l 0.94875,-5.6925 -32.25744,-2.84624 c 0,0 -3.79499,-15.17997 16.12872,-18.02622 3.38638,-0.48377 -12.33373,-0.94875 -8.53873,-8.53873 3.79499,-7.58999 6.64124,-5.69249 8.53873,-11.38498 1.8975,-5.69249 1.8975,-10.43623 8.53873,-9.48748 6.64124,0.94875 6.64124,4.74374 13.28248,0.94875 6.64124,-3.79499 22.76996,0 19.92371,5.69249 -2.84625,5.69249 -7.58999,10.43623 -3.79499,14.23122 3.79499,3.79499 12.33373,10.43623 5.69249,15.17997 -6.64124,4.74374 -8.53873,7.58999 -7.58999,9.48748 0.94874,1.89749 -5.69249,-1.8975 -5.69249,-1.8975 0,0 6.64124,13.28248 3.79499,18.02622 -2.84624,4.74374 -7.58999,11.38498 -7.58999,11.38498 z"
                   fill="#2f2e41"
                   id="path25990" />
              </g>
              <rect
                 x="571.71436"
                 y="282.71381"
                 width="50.674709"
                 height="64.691116"
                 fill="#ffb6b6"
                 id="rect25994" />
              <path
                 d="m 574.94893,166.26978 c -2.56839,-4.82179 -3.76896,-6.92213 -3.23456,-9.70367 0.93872,-4.88602 6.39865,-7.54216 8.62548,-8.62548 7.15245,-3.47952 16.42484,-3.27164 23.72008,1.07819 4.38291,2.61334 6.72263,5.92897 8.62548,8.62548 1.70533,2.41661 7.008,9.93103 6.46911,19.40734 -0.40453,7.11379 -3.65873,7.55552 -3.23456,11.86004 1.06479,10.80545 21.82969,10.65024 26.95463,22.64189 4.62134,10.81331 -4.63979,28.77716 -18.32915,35.58012 -20.8409,10.35694 -43.40073,-9.40056 -47.44015,-12.93822 -9.7334,-8.52434 -16.17051,-20.25566 -14.01641,-22.64189 1.26143,-1.39735 4.5816,1.39288 9.70367,0 5.83968,-1.58803 8.93803,-7.23103 9.70367,-8.62548 4.42099,-8.05194 1.82755,-16.86175 1.07819,-19.40734 -0.69609,-2.36462 -3.33922,-7.32671 -8.62548,-17.25097 z"
                 fill="#2f2e41"
                 id="path25996" />
              <g
                 id="g26002">
                <polygon
                   points="547.81054,567.43563 533.03429,567.43421 526.00513,510.43941 547.81355,510.44094 "
                   fill="#ffb6b6"
                   id="polygon25998" />
                <path
                   d="m 497.18523,567.10046 v 0 c -0.46007,0.77488 -0.70285,3.27579 -0.70285,4.17689 v 0 c 0,2.76976 2.24526,5.01513 5.01513,5.01513 h 45.76036 c 1.88952,0 3.42133,-1.53175 3.42133,-3.42133 v -1.90516 c 0,0 2.26373,-5.72597 -2.39686,-12.78353 0,0 -5.79251,5.5262 -14.448,-3.12929 l -2.55242,-4.62392 -18.47607,13.51245 -10.24097,1.26057 c -2.24055,0.27577 -4.22698,-0.0428 -5.37942,1.89819 z"
                   fill="#2f2e41"
                   id="path26000" />
              </g>
              <g
                 id="g26008">
                <polygon
                   points="632.98718,567.43563 618.21093,567.43421 611.18177,510.43941 632.99019,510.44094 "
                   fill="#ffb6b6"
                   id="polygon26004" />
                <path
                   d="m 582.36187,567.10046 v 0 c -0.46007,0.77488 -0.70285,3.27579 -0.70285,4.17689 v 0 c 0,2.76976 2.24526,5.01513 5.01513,5.01513 h 45.76036 c 1.88952,0 3.42133,-1.53175 3.42133,-3.42133 v -1.90516 c 0,0 2.26373,-5.72597 -2.39686,-12.78353 0,0 -5.79251,5.5262 -14.448,-3.12929 l -2.55242,-4.62392 -18.47607,13.51245 -10.24097,1.26057 c -2.24055,0.27577 -4.22698,-0.0428 -5.37942,1.89819 z"
                   fill="#2f2e41"
                   id="path26006" />
              </g>
              <polygon
                 points="585.73078,189.98986 586.80897,223.41361 625.62364,228.80453 605.67721,183.42736 "
                 fill="#ffb6b6"
                 id="polygon26010" />
              <circle
                 cx="596.51263"
                 cy="178.12982"
                 r="22.64189"
                 fill="#ffb6b6"
                 id="circle26012" />
              <path
                 d="m 622.38908,321.52847 c 0,0 24.25917,26.41554 9.16458,50.13562 l 2.15637,76.55116 c 0,0 8.98258,55.45438 -1.43873,91.87922 l -17.96861,-1.31165 -12.93822,-94.88031 -12.93822,-62.53475 -30.18919,61.45656 c 0,0 2.15637,44.2056 -8.62548,91.64575 H 525.8915 l 2.15637,-109.9749 39.35376,-114.82674 z"
                 fill="#2f2e41"
                 id="path26014" />
              <path
                 d="m 586.80897,210.47538 1.62439,-0.59069 22.09568,-8.03479 c 0,0 28.03282,21.56371 28.03282,33.42374 0,11.86004 -15.09459,54.98745 -15.09459,54.98745 0,0 20.48552,21.56371 2.15637,22.64189 -18.32915,1.07819 -27.958,-16.39551 -58.14719,-3.45729 l -2.23119,-27.81009 c 0,0 -12.93822,-28.03282 -6.46911,-34.50193 l 28.03282,-36.6583 z"
                 fill="#ffffff"
                 id="path26016" />
              <g
                 id="g26021">
                <path
                   id="uuid-f3810b44-6ed8-4ba4-aece-9f62ede2237e-495"
                   d="m 617.47326,377.5433 c 0.13856,8.80539 4.79423,15.87139 10.39802,15.78229 5.60379,-0.0891 10.03266,-7.29886 9.89287,-16.10737 -0.008,-3.51941 -0.85787,-6.98582 -2.47976,-10.10923 l -1.05826,-37.3014 -14.74968,0.4561 0.15637,37.09385 c -1.52299,3.17407 -2.26351,6.66678 -2.15955,10.18576 z"
                   fill="#ffb6b6" />
                <path
                   d="m 625.19513,212.8288 h 3e-5 c 8.38523,-1.36881 15.99265,5.11936 15.96431,13.61553 L 636.7255,360.06686 619.17878,359.65382 613.66162,226.532 c -0.0659,-6.78878 4.8331,-12.60942 11.53352,-13.7032 z"
                   fill="#ffffff"
                   id="path26019" />
              </g>
              <g
                 id="g26026">
                <path
                   id="uuid-1f352128-bb30-410f-afa3-1f56ea30cdf5-496"
                   d="m 476.48982,311.77079 c -6.89673,5.47624 -9.66151,13.47372 -6.17567,17.86227 3.48584,4.38855 11.90108,3.50595 18.79954,-1.97316 2.78567,-2.15089 5.01575,-4.93761 6.50363,-8.12703 l 28.92871,-23.57209 -9.3507,-11.41602 -29.31382,22.73056 c -3.44467,0.72694 -6.66511,2.26844 -9.3917,4.49548 z"
                   fill="#ffb6b6" />
                <path
                   d="m 611.78645,217.50884 2e-5,2e-5 c 6.19555,5.81386 5.68783,15.79942 -1.06547,20.95488 l -108.6422,77.91991 -10.36625,-14.1633 102.18057,-85.50431 c 5.34217,-4.18965 12.94263,-3.8529 17.89333,0.7928 z"
                   fill="#ffffff"
                   id="path26024" />
              </g>
              <path
                 d="m 585.73078,165.1916 c -2.56839,-4.82179 -3.76896,-6.92213 -3.23456,-9.70367 0.93872,-4.88602 6.39865,-7.54216 8.62548,-8.62548 7.15245,-3.47952 16.42484,-3.27164 23.72008,1.07819 4.38291,2.61334 6.72263,5.92897 8.62548,8.62548 1.70533,2.41661 7.008,9.93103 6.46911,19.40734 -0.40453,7.11379 -3.65873,7.55552 -3.23456,11.86004 1.06479,10.80545 21.82969,10.65024 26.95463,22.64189 4.62134,10.81331 -4.63979,28.77716 -18.32915,35.58012 -20.8409,10.35694 -43.40073,-9.40056 -47.44015,-12.93822 -9.7334,-8.52434 -16.17051,-20.25566 -14.01641,-22.64189 1.26143,-1.39735 4.5816,1.39288 9.70367,0 5.83968,-1.58803 8.93803,-7.23103 9.70367,-8.62548 4.42099,-8.05194 1.82755,-16.86175 1.07819,-19.40734 -0.69609,-2.36462 -3.33922,-7.32671 -8.62548,-17.25097 z"
                 fill="#2f2e41"
                 id="path26028" />
              <g
                 id="g26033">
                <path
                   id="uuid-09c2a9e3-35cc-4919-a11f-a37384527e4b-497"
                   d="m 466.47848,311.61582 c -6.15965,1.85967 -10.19302,6.54529 -9.00888,10.46514 1.18415,3.91985 7.13669,5.58898 13.2983,3.72783 2.4715,-0.70969 4.73712,-2.00094 6.60727,-3.76573 l 25.9992,-8.20907 -3.27247,-10.27304 -26.03387,7.53378 c -2.53517,-0.43492 -5.13764,-0.25625 -7.58955,0.52109 z"
                   fill="#a0616a" />
                <path
                   d="m 511.64836,244.26128 -27.39371,-20.08872 0.91312,38.35119 25.56746,32.87245 -27.39371,10.95748 0.91312,15.64527 c 0,0 34.6987,-8.34028 40.17744,-9.2534 5.47874,-0.91312 10.04436,-13.69685 10.04436,-13.69685 l -22.82809,-54.78742 z"
                   fill="#e6e6e6"
                   id="path26031" />
              </g>
            </g>
          </g>
        </g>
      </g>
    </g>
  
</svg>
